<svg xmlns="http://www.w3.org/2000/svg" viewBox="0 0 1536 440" width="1536" height="440">
<defs>
<filter id="bg" x="-40%" y="-40%" width="180%" height="180%"><feGaussianBlur stdDeviation="4" result="b"/><feMerge><feMergeNode in="b"/><feMergeNode in="SourceGraphic"/></feMerge></filter>
<filter id="bgS" x="-60%" y="-60%" width="220%" height="220%"><feGaussianBlur stdDeviation="9"/></filter>
<filter id="wg" x="-20%" y="-20%" width="140%" height="140%"><feGaussianBlur stdDeviation="1.4" result="b"/><feMerge><feMergeNode in="b"/><feMergeNode in="SourceGraphic"/></feMerge></filter>
<filter id="gg" x="-90%" y="-90%" width="280%" height="280%"><feGaussianBlur stdDeviation="4.5" result="b"/><feMerge><feMergeNode in="b"/><feMergeNode in="SourceGraphic"/></feMerge></filter>
<filter id="beamBlur" x="-30%" y="-30%" width="160%" height="160%"><feGaussianBlur stdDeviation="3"/></filter>
<linearGradient id="beam" x1="0" y1="0" x2="1" y2="0"><stop offset="0%" stop-color="#EAFBFF" stop-opacity="0.95"/><stop offset="30%" stop-color="#2DD4FF" stop-opacity="0.4"/><stop offset="100%" stop-color="#2DD4FF" stop-opacity="0"/></linearGradient>
<linearGradient id="mtn" x1="0" y1="0" x2="0" y2="1"><stop offset="0%" stop-color="#313A49"/><stop offset="60%" stop-color="#1C222C"/><stop offset="100%" stop-color="#101114" stop-opacity="0"/></linearGradient>
</defs>
<rect width="1536" height="440" fill="#101114"/>

<g id="mountains" opacity="0.7">
<path d="M712 184 L756 150 L784 126 L806 146 L826 104 L850 138 L872 118 L902 150 L940 184 Z" fill="url(#mtn)"/>
<path d="M756 150 L784 126 L806 146 L826 104 L850 138 L872 118 L902 150" fill="none" stroke="#4A5462" stroke-width="1.3" opacity="0.6"/>
<path d="M826 104 L815 130 L822 124 L826 132 L831 122 L838 130 Z" fill="#E4EFF5" opacity="0.75"/>
<path d="M784 126 L777 142 L782 137 L785 144 L789 136 Z" fill="#D2E1EA" opacity="0.55"/>
<path d="M872 118 L865 135 L870 130 L873 137 L877 129 Z" fill="#D2E1EA" opacity="0.55"/>
</g>

<g id="trail">
<g fill="#2DD4FF" opacity="0.32" filter="url(#bgS)"><g transform="translate(0.000000,440.000000) scale(0.100000,-0.100000)">
<path d="M3493 3853 c48 -2 126 -2 175 0 48 1 8 3 -88 3 -96 0 -136 -2 -87 -3z"/>
<path d="M12635 3230 c-48 -10 -96 -29 -75 -29 8 0 47 8 85 18 70 19 64 26
-10 11z"/>
<path d="M12850 3236 c0 -2 21 -9 48 -15 26 -5 55 -13 65 -16 9 -4 17 -3 17 2
0 5 -23 15 -51 21 -52 12 -79 15 -79 8z"/>
<path d="M12125 3079 c-284 -29 -456 -99 -511 -209 -24 -48 -36 -127 -19 -132
6 -1 21 -15 34 -31 14 -16 44 -41 67 -56 23 -14 42 -28 43 -31 0 -15 14 -40
23 -40 5 0 16 -7 24 -15 14 -13 14 -15 0 -15 -9 0 -16 -4 -16 -10 0 -12 62 -1
71 13 4 5 14 7 22 4 9 -3 17 -2 19 3 2 5 18 2 36 -6 31 -13 32 -15 18 -30 -9
-8 -13 -21 -9 -27 4 -7 -5 -4 -20 6 -30 19 -37 21 -37 8 0 -5 16 -19 35 -31
30 -19 34 -24 23 -37 -10 -13 -8 -18 10 -33 12 -10 22 -25 22 -34 0 -9 5 -16
10 -16 6 0 10 -7 10 -16 0 -10 6 -14 15 -10 8 3 15 3 15 1 0 -12 -103 -54
-167 -69 -75 -17 -100 -20 -71 -8 13 5 15 11 7 22 -8 11 -12 12 -16 3 -3 -10
-8 -10 -19 1 -16 16 -50 11 -76 -12 -12 -10 -32 -13 -68 -10 -48 5 -70 -5 -32
-15 9 -3 -5 -5 -33 -5 -52 -1 -145 14 -110 18 20 1 20 1 0 10 -18 8 -18 9 5
10 25 2 25 2 0 10 -25 8 -25 8 3 9 33 1 37 21 3 21 -31 0 -89 21 -101 36 -13
17 -65 29 -65 16 0 -6 -25 0 -57 14 -40 18 -89 28 -171 36 -85 9 -109 14 -91
20 19 7 21 11 9 18 -12 8 -9 10 10 10 20 0 22 2 10 10 -8 5 -22 7 -31 4 -9 -2
-36 2 -60 10 -24 8 -45 14 -46 12 -7 -6 23 -25 57 -35 35 -11 35 -11 -2 -7
-21 3 -40 0 -43 -5 -9 -13 -45 -10 -80 7 -16 8 -22 12 -12 9 13 -3 18 0 16 13
-2 9 1 28 5 41 5 15 4 27 -4 35 -10 8 -12 6 -7 -11 3 -13 -1 -24 -9 -27 -8 -3
-14 1 -14 9 0 8 -4 15 -10 15 -5 0 -10 -6 -10 -14 0 -8 -8 -13 -17 -12 -10 0
-17 -5 -15 -12 3 -17 -31 5 -47 31 -7 10 -8 16 -3 13 15 -9 2 31 -14 45 -8 6
-14 8 -14 4 0 -3 -18 9 -40 28 -282 241 -810 147 -1001 -177 -11 -20 -25 -33
-30 -30 -5 3 -6 -1 -3 -9 3 -8 -2 -20 -11 -27 -8 -7 -15 -10 -15 -6 0 14 -60
-25 -71 -47 -7 -12 -18 -26 -26 -30 -8 -5 -18 -20 -23 -33 -11 -28 -35 -31
-50 -6 -9 16 -11 16 -27 -3 -10 -12 -26 -24 -35 -28 -10 -3 -26 -20 -36 -37
-10 -16 -22 -27 -25 -23 -4 3 -7 -1 -7 -11 0 -13 6 -16 23 -12 12 3 4 -3 -18
-14 -43 -21 -84 -28 -55 -10 11 7 5 10 -22 10 -40 0 -46 8 -26 28 9 9 9 12 1
12 -7 0 -15 -5 -18 -11 -4 -6 -14 -8 -22 -4 -21 7 -66 -23 -59 -40 3 -9 -6
-16 -26 -20 -23 -5 -27 -9 -17 -16 9 -6 -1 -9 -30 -9 -30 0 -48 5 -57 17 -10
14 -26 18 -79 17 -58 -1 -66 1 -62 16 5 21 -18 54 -33 45 -8 -5 -8 -11 1 -21
8 -10 8 -14 0 -14 -6 0 -11 5 -11 10 0 6 -11 15 -25 20 -14 5 -28 17 -31 25
-8 19 -34 20 -34 1 0 -20 -18 -15 -75 20 -91 56 -146 69 -290 68 -249 -1 -400
-9 -420 -21 -19 -12 -18 -12 10 -13 19 -1 -3 -10 -60 -25 -49 -13 -110 -30
-134 -39 -51 -19 -54 -19 -46 -6 4 6 -8 10 -28 10 -26 0 -36 -5 -45 -25 -10
-21 -9 -23 6 -18 26 9 11 -2 -28 -22 -29 -15 -33 -15 -22 -2 12 14 7 15 -45
15 -39 -1 -51 -3 -38 -9 11 -4 15 -8 10 -8 -9 -1 -38 -62 -40 -83 0 -3 -4 -10
-9 -15 -5 -5 -6 -2 -1 6 5 9 4 12 -3 7 -7 -4 -17 -16 -23 -28 -8 -16 -8 -19 1
-13 7 4 4 -5 -5 -19 -11 -16 -24 -25 -32 -22 -8 3 -12 2 -9 -3 3 -4 -3 -16
-14 -26 -11 -10 -20 -26 -20 -35 0 -9 -6 -22 -12 -28 -10 -10 -10 -17 0 -32
18 -30 15 -57 -9 -63 -12 -3 -18 -10 -15 -15 4 -6 -2 -8 -14 -5 -12 3 -28 -1
-38 -10 -9 -9 -39 -25 -65 -36 -51 -22 -75 -42 -92 -74 -5 -11 -25 -28 -44
-38 -34 -18 -35 -18 -66 1 -43 27 -44 26 -94 -21 -30 -27 -49 -38 -60 -33 -42
17 -63 15 -99 -10 -40 -27 -67 -33 -77 -16 -14 22 -55 11 -55 -15 0 -21 -5
-25 -32 -25 -18 0 -41 -7 -51 -14 -16 -12 35 -14 350 -14 270 0 362 3 345 11
-13 6 -21 16 -18 23 3 7 -3 14 -12 16 -13 3 -12 5 6 10 12 3 20 2 16 -3 -7
-13 4 -11 56 7 28 10 59 13 83 10 35 -6 38 -5 32 13 -3 11 -1 22 5 26 5 3 10
19 10 35 0 22 7 31 30 42 22 10 28 17 24 32 -4 11 -2 16 4 12 6 -3 14 -1 18 5
3 6 22 17 40 25 19 8 34 21 34 29 0 21 -18 19 -23 -2 -4 -16 -5 -16 -6 -1 0 9
3 20 9 23 6 3 10 15 10 26 0 11 -3 18 -7 16 -5 -3 -6 14 -5 37 3 33 13 52 48
90 24 27 44 52 44 57 0 18 55 58 95 68 43 11 69 52 41 66 -6 2 0 2 13 -1 16
-4 21 -3 17 5 -4 6 -3 11 3 11 5 0 18 3 28 6 15 5 15 4 3 -5 -12 -8 -5 -11 28
-11 25 0 50 6 58 15 14 13 12 15 -12 15 -15 0 -25 2 -23 4 6 6 250 53 314 61
28 4 63 9 79 12 19 3 26 2 22 -6 -9 -14 10 -22 65 -25 32 -2 45 -7 47 -19 2
-10 10 -17 19 -17 9 0 13 6 10 14 -8 20 16 26 58 15 35 -10 58 -40 48 -66 -5
-14 32 -27 48 -17 7 4 9 3 6 -3 -7 -11 25 -26 76 -38 17 -3 26 -2 23 4 -3 5
16 0 44 -12 27 -11 45 -24 39 -28 -6 -3 -1 -9 13 -12 33 -9 46 -7 23 4 -13 6
-5 6 25 1 25 -4 104 -7 175 -6 72 0 117 -2 100 -6 -28 -5 -29 -6 -7 -12 13 -4
46 2 75 12 30 11 44 19 32 20 -14 2 -11 4 10 10 17 4 54 14 83 23 29 9 50 12
46 6 -3 -6 5 -7 23 -4 50 11 55 15 49 31 -3 8 -2 12 4 9 6 -3 10 -2 10 3 0 5
21 23 48 40 77 50 150 129 218 232 70 106 159 204 214 234 35 19 35 19 17 -1
-23 -26 -13 -33 42 -32 32 0 40 3 27 8 -19 7 -19 8 -1 14 10 4 15 10 12 14 -4
3 -2 14 4 24 8 15 6 18 -8 13 -15 -4 -15 -4 -3 4 24 15 68 26 50 12 -11 -9 1
-10 55 -5 73 6 113 24 59 26 -25 1 -24 2 11 10 54 11 147 11 141 0 -7 -11 17
-21 52 -21 15 0 42 -9 60 -20 33 -20 113 -30 82 -10 -8 5 -10 10 -4 10 15 0
97 -54 114 -76 14 -18 14 -18 -5 -3 -34 27 -45 32 -39 14 4 -8 1 -22 -6 -30
-7 -8 -9 -15 -4 -15 4 0 3 -5 -4 -12 -14 -14 21 -58 47 -58 11 0 9 5 -7 20
-30 28 -28 31 19 28 25 -1 45 -9 53 -20 7 -9 29 -30 49 -46 20 -16 34 -32 30
-36 -3 -3 -2 -6 3 -7 42 -4 67 -8 119 -23 32 -9 109 -21 169 -26 109 -11 150
-20 86 -20 -28 0 -31 -2 -20 -15 7 -8 16 -12 21 -9 5 3 14 2 21 -2 6 -4 36 -8
66 -9 47 -1 52 0 36 12 -28 20 -3 15 33 -7 33 -20 62 -60 43 -60 -5 0 -10 4
-10 10 0 5 -7 7 -15 4 -8 -4 -13 -10 -10 -14 3 -5 -4 -6 -15 -3 -11 3 -20 0
-20 -6 0 -10 30 -20 60 -19 8 0 24 -3 34 -8 14 -5 17 -4 12 5 -5 8 5 6 25 -5
97 -50 280 -66 457 -40 62 9 117 14 122 11 14 -9 51 5 45 16 -4 5 -1 9 5 9 27
0 124 57 155 91 91 101 48 211 -115 294 -19 10 -41 26 -48 36 -13 19 -49 28
-38 10 4 -5 -9 -4 -28 1 -29 9 -32 13 -21 24 7 8 18 14 24 14 6 0 11 5 11 10
0 6 -4 10 -10 10 -5 0 -25 14 -44 30 -19 18 -36 26 -38 19 -2 -6 -5 9 -6 32
-2 66 14 109 43 109 13 0 27 5 30 10 3 6 1 10 -4 10 -6 0 -11 6 -11 14 0 8 -6
16 -12 19 -40 13 218 69 323 71 43 1 75 4 72 9 -2 4 20 7 50 7 145 0 237 12
237 31 0 18 -10 19 -147 18 -82 -1 -184 -5 -228 -10z m-376 -193 c15 -16 19
-26 12 -31 -7 -4 -10 -1 -9 7 2 7 -3 12 -9 11 -7 -2 -13 4 -13 13 0 9 -5 12
-12 8 -7 -4 -8 -3 -4 4 9 16 9 16 35 -12z m-2339 -640 c0 -3 -13 -14 -28 -25
-22 -15 -29 -17 -29 -6 0 8 3 12 7 10 4 -2 16 2 26 10 21 16 24 17 24 11z"/>
<path d="M11520 2721 c0 -11 42 -43 48 -37 4 5 -35 46 -43 46 -3 0 -5 -4 -5
-9z"/>
<path d="M11570 2642 c0 -13 37 -45 48 -41 5 2 -4 14 -20 27 -15 13 -28 19
-28 14z"/>
<path d="M10400 2587 c0 -14 7 -30 15 -37 9 -8 15 -9 15 -2 0 6 -5 14 -11 17
-6 4 -8 13 -5 21 3 7 1 16 -4 19 -6 4 -10 -5 -10 -18z"/>
<path d="M9731 2533 c-29 -35 -17 -43 14 -9 27 29 30 36 16 36 -5 0 -19 -12
-30 -27z"/>
<path d="M11105 2470 c3 -5 16 -10 28 -10 18 0 19 2 7 10 -20 13 -43 13 -35 0z"/>
<path d="M11910 2390 c0 -11 5 -20 10 -20 6 0 10 9 10 20 0 11 -4 20 -10 20
-5 0 -10 -9 -10 -20z"/>
<path d="M11370 2375 c0 -9 5 -15 11 -13 6 2 11 8 11 13 0 5 -5 11 -11 13 -6
2 -11 -4 -11 -13z"/>
<path d="M9732 2349 c-19 -30 -8 -34 12 -4 9 14 13 25 9 25 -5 0 -14 -9 -21
-21z"/>
<path d="M11776 2334 c-4 -9 -4 -19 -2 -21 8 -8 26 8 26 23 0 19 -16 18 -24
-2z"/>
<path d="M7420 2260 c-112 -5 -105 -6 70 -7 107 0 204 3 215 7 22 8 -91 8
-285 0z"/>
<path d="M9255 2249 c-4 -6 -5 -13 -2 -16 7 -7 27 6 27 18 0 12 -17 12 -25 -2z"/>
<path d="M7685 2224 c-21 -16 -5 -18 29 -5 16 6 17 9 5 13 -8 3 -23 0 -34 -8z"/>
<path d="M11210 2181 c0 -9 24 -21 43 -21 6 0 2 7 -9 15 -22 17 -34 19 -34 6z"/>
<path d="M11543 2153 c15 -2 39 -2 55 0 15 2 2 4 -28 4 -30 0 -43 -2 -27 -4z"/>
<path d="M7905 2140 c-7 -11 9 -11 45 0 24 8 24 8 -7 9 -17 1 -35 -3 -38 -9z"/>
<path d="M8850 2136 c0 -10 9 -16 25 -16 14 0 25 5 25 10 0 6 -4 10 -9 10 -5
0 -16 3 -25 6 -11 4 -16 1 -16 -10z"/>
<path d="M7183 2133 c15 -2 37 -2 50 0 12 2 0 4 -28 4 -27 0 -38 -2 -22 -4z"/>
<path d="M7293 2133 c15 -2 39 -2 55 0 15 2 2 4 -28 4 -30 0 -43 -2 -27 -4z"/>
<path d="M7162 1848 c5 -15 28 -18 29 -3 0 6 -7 12 -17 13 -10 3 -15 -1 -12
-10z"/>
<path d="M7530 1805 c0 -15 6 -25 14 -25 8 0 17 -6 19 -12 3 -7 6 -2 6 13 1
24 -15 49 -31 49 -4 0 -8 -11 -8 -25z"/>
<path d="M7044 1745 c-16 -12 -17 -14 -2 -15 23 0 48 11 48 21 0 14 -24 11
-46 -6z"/>
<path d="M4746 1708 c-48 -41 -48 -41 -344 -36 -194 4 -246 3 -152 -2 259 -14
444 -15 465 -3 21 12 93 83 83 83 -3 0 -26 -19 -52 -42z"/>
<path d="M6930 1670 c0 -13 30 -13 50 0 11 7 7 10 -17 10 -18 0 -33 -4 -33
-10z"/>
<path d="M6723 1633 c-12 -2 -27 -12 -35 -21 -7 -8 -8 -13 -2 -9 7 4 32 8 58
8 25 1 46 6 46 10 0 7 -27 20 -38 18 -4 -1 -17 -4 -29 -6z"/>
</g></g>
<g fill="#2DD4FF" filter="url(#bg)"><g transform="translate(0.000000,440.000000) scale(0.100000,-0.100000)">
<path d="M3493 3853 c48 -2 126 -2 175 0 48 1 8 3 -88 3 -96 0 -136 -2 -87 -3z"/>
<path d="M12635 3230 c-48 -10 -96 -29 -75 -29 8 0 47 8 85 18 70 19 64 26
-10 11z"/>
<path d="M12850 3236 c0 -2 21 -9 48 -15 26 -5 55 -13 65 -16 9 -4 17 -3 17 2
0 5 -23 15 -51 21 -52 12 -79 15 -79 8z"/>
<path d="M12125 3079 c-284 -29 -456 -99 -511 -209 -24 -48 -36 -127 -19 -132
6 -1 21 -15 34 -31 14 -16 44 -41 67 -56 23 -14 42 -28 43 -31 0 -15 14 -40
23 -40 5 0 16 -7 24 -15 14 -13 14 -15 0 -15 -9 0 -16 -4 -16 -10 0 -12 62 -1
71 13 4 5 14 7 22 4 9 -3 17 -2 19 3 2 5 18 2 36 -6 31 -13 32 -15 18 -30 -9
-8 -13 -21 -9 -27 4 -7 -5 -4 -20 6 -30 19 -37 21 -37 8 0 -5 16 -19 35 -31
30 -19 34 -24 23 -37 -10 -13 -8 -18 10 -33 12 -10 22 -25 22 -34 0 -9 5 -16
10 -16 6 0 10 -7 10 -16 0 -10 6 -14 15 -10 8 3 15 3 15 1 0 -12 -103 -54
-167 -69 -75 -17 -100 -20 -71 -8 13 5 15 11 7 22 -8 11 -12 12 -16 3 -3 -10
-8 -10 -19 1 -16 16 -50 11 -76 -12 -12 -10 -32 -13 -68 -10 -48 5 -70 -5 -32
-15 9 -3 -5 -5 -33 -5 -52 -1 -145 14 -110 18 20 1 20 1 0 10 -18 8 -18 9 5
10 25 2 25 2 0 10 -25 8 -25 8 3 9 33 1 37 21 3 21 -31 0 -89 21 -101 36 -13
17 -65 29 -65 16 0 -6 -25 0 -57 14 -40 18 -89 28 -171 36 -85 9 -109 14 -91
20 19 7 21 11 9 18 -12 8 -9 10 10 10 20 0 22 2 10 10 -8 5 -22 7 -31 4 -9 -2
-36 2 -60 10 -24 8 -45 14 -46 12 -7 -6 23 -25 57 -35 35 -11 35 -11 -2 -7
-21 3 -40 0 -43 -5 -9 -13 -45 -10 -80 7 -16 8 -22 12 -12 9 13 -3 18 0 16 13
-2 9 1 28 5 41 5 15 4 27 -4 35 -10 8 -12 6 -7 -11 3 -13 -1 -24 -9 -27 -8 -3
-14 1 -14 9 0 8 -4 15 -10 15 -5 0 -10 -6 -10 -14 0 -8 -8 -13 -17 -12 -10 0
-17 -5 -15 -12 3 -17 -31 5 -47 31 -7 10 -8 16 -3 13 15 -9 2 31 -14 45 -8 6
-14 8 -14 4 0 -3 -18 9 -40 28 -282 241 -810 147 -1001 -177 -11 -20 -25 -33
-30 -30 -5 3 -6 -1 -3 -9 3 -8 -2 -20 -11 -27 -8 -7 -15 -10 -15 -6 0 14 -60
-25 -71 -47 -7 -12 -18 -26 -26 -30 -8 -5 -18 -20 -23 -33 -11 -28 -35 -31
-50 -6 -9 16 -11 16 -27 -3 -10 -12 -26 -24 -35 -28 -10 -3 -26 -20 -36 -37
-10 -16 -22 -27 -25 -23 -4 3 -7 -1 -7 -11 0 -13 6 -16 23 -12 12 3 4 -3 -18
-14 -43 -21 -84 -28 -55 -10 11 7 5 10 -22 10 -40 0 -46 8 -26 28 9 9 9 12 1
12 -7 0 -15 -5 -18 -11 -4 -6 -14 -8 -22 -4 -21 7 -66 -23 -59 -40 3 -9 -6
-16 -26 -20 -23 -5 -27 -9 -17 -16 9 -6 -1 -9 -30 -9 -30 0 -48 5 -57 17 -10
14 -26 18 -79 17 -58 -1 -66 1 -62 16 5 21 -18 54 -33 45 -8 -5 -8 -11 1 -21
8 -10 8 -14 0 -14 -6 0 -11 5 -11 10 0 6 -11 15 -25 20 -14 5 -28 17 -31 25
-8 19 -34 20 -34 1 0 -20 -18 -15 -75 20 -91 56 -146 69 -290 68 -249 -1 -400
-9 -420 -21 -19 -12 -18 -12 10 -13 19 -1 -3 -10 -60 -25 -49 -13 -110 -30
-134 -39 -51 -19 -54 -19 -46 -6 4 6 -8 10 -28 10 -26 0 -36 -5 -45 -25 -10
-21 -9 -23 6 -18 26 9 11 -2 -28 -22 -29 -15 -33 -15 -22 -2 12 14 7 15 -45
15 -39 -1 -51 -3 -38 -9 11 -4 15 -8 10 -8 -9 -1 -38 -62 -40 -83 0 -3 -4 -10
-9 -15 -5 -5 -6 -2 -1 6 5 9 4 12 -3 7 -7 -4 -17 -16 -23 -28 -8 -16 -8 -19 1
-13 7 4 4 -5 -5 -19 -11 -16 -24 -25 -32 -22 -8 3 -12 2 -9 -3 3 -4 -3 -16
-14 -26 -11 -10 -20 -26 -20 -35 0 -9 -6 -22 -12 -28 -10 -10 -10 -17 0 -32
18 -30 15 -57 -9 -63 -12 -3 -18 -10 -15 -15 4 -6 -2 -8 -14 -5 -12 3 -28 -1
-38 -10 -9 -9 -39 -25 -65 -36 -51 -22 -75 -42 -92 -74 -5 -11 -25 -28 -44
-38 -34 -18 -35 -18 -66 1 -43 27 -44 26 -94 -21 -30 -27 -49 -38 -60 -33 -42
17 -63 15 -99 -10 -40 -27 -67 -33 -77 -16 -14 22 -55 11 -55 -15 0 -21 -5
-25 -32 -25 -18 0 -41 -7 -51 -14 -16 -12 35 -14 350 -14 270 0 362 3 345 11
-13 6 -21 16 -18 23 3 7 -3 14 -12 16 -13 3 -12 5 6 10 12 3 20 2 16 -3 -7
-13 4 -11 56 7 28 10 59 13 83 10 35 -6 38 -5 32 13 -3 11 -1 22 5 26 5 3 10
19 10 35 0 22 7 31 30 42 22 10 28 17 24 32 -4 11 -2 16 4 12 6 -3 14 -1 18 5
3 6 22 17 40 25 19 8 34 21 34 29 0 21 -18 19 -23 -2 -4 -16 -5 -16 -6 -1 0 9
3 20 9 23 6 3 10 15 10 26 0 11 -3 18 -7 16 -5 -3 -6 14 -5 37 3 33 13 52 48
90 24 27 44 52 44 57 0 18 55 58 95 68 43 11 69 52 41 66 -6 2 0 2 13 -1 16
-4 21 -3 17 5 -4 6 -3 11 3 11 5 0 18 3 28 6 15 5 15 4 3 -5 -12 -8 -5 -11 28
-11 25 0 50 6 58 15 14 13 12 15 -12 15 -15 0 -25 2 -23 4 6 6 250 53 314 61
28 4 63 9 79 12 19 3 26 2 22 -6 -9 -14 10 -22 65 -25 32 -2 45 -7 47 -19 2
-10 10 -17 19 -17 9 0 13 6 10 14 -8 20 16 26 58 15 35 -10 58 -40 48 -66 -5
-14 32 -27 48 -17 7 4 9 3 6 -3 -7 -11 25 -26 76 -38 17 -3 26 -2 23 4 -3 5
16 0 44 -12 27 -11 45 -24 39 -28 -6 -3 -1 -9 13 -12 33 -9 46 -7 23 4 -13 6
-5 6 25 1 25 -4 104 -7 175 -6 72 0 117 -2 100 -6 -28 -5 -29 -6 -7 -12 13 -4
46 2 75 12 30 11 44 19 32 20 -14 2 -11 4 10 10 17 4 54 14 83 23 29 9 50 12
46 6 -3 -6 5 -7 23 -4 50 11 55 15 49 31 -3 8 -2 12 4 9 6 -3 10 -2 10 3 0 5
21 23 48 40 77 50 150 129 218 232 70 106 159 204 214 234 35 19 35 19 17 -1
-23 -26 -13 -33 42 -32 32 0 40 3 27 8 -19 7 -19 8 -1 14 10 4 15 10 12 14 -4
3 -2 14 4 24 8 15 6 18 -8 13 -15 -4 -15 -4 -3 4 24 15 68 26 50 12 -11 -9 1
-10 55 -5 73 6 113 24 59 26 -25 1 -24 2 11 10 54 11 147 11 141 0 -7 -11 17
-21 52 -21 15 0 42 -9 60 -20 33 -20 113 -30 82 -10 -8 5 -10 10 -4 10 15 0
97 -54 114 -76 14 -18 14 -18 -5 -3 -34 27 -45 32 -39 14 4 -8 1 -22 -6 -30
-7 -8 -9 -15 -4 -15 4 0 3 -5 -4 -12 -14 -14 21 -58 47 -58 11 0 9 5 -7 20
-30 28 -28 31 19 28 25 -1 45 -9 53 -20 7 -9 29 -30 49 -46 20 -16 34 -32 30
-36 -3 -3 -2 -6 3 -7 42 -4 67 -8 119 -23 32 -9 109 -21 169 -26 109 -11 150
-20 86 -20 -28 0 -31 -2 -20 -15 7 -8 16 -12 21 -9 5 3 14 2 21 -2 6 -4 36 -8
66 -9 47 -1 52 0 36 12 -28 20 -3 15 33 -7 33 -20 62 -60 43 -60 -5 0 -10 4
-10 10 0 5 -7 7 -15 4 -8 -4 -13 -10 -10 -14 3 -5 -4 -6 -15 -3 -11 3 -20 0
-20 -6 0 -10 30 -20 60 -19 8 0 24 -3 34 -8 14 -5 17 -4 12 5 -5 8 5 6 25 -5
97 -50 280 -66 457 -40 62 9 117 14 122 11 14 -9 51 5 45 16 -4 5 -1 9 5 9 27
0 124 57 155 91 91 101 48 211 -115 294 -19 10 -41 26 -48 36 -13 19 -49 28
-38 10 4 -5 -9 -4 -28 1 -29 9 -32 13 -21 24 7 8 18 14 24 14 6 0 11 5 11 10
0 6 -4 10 -10 10 -5 0 -25 14 -44 30 -19 18 -36 26 -38 19 -2 -6 -5 9 -6 32
-2 66 14 109 43 109 13 0 27 5 30 10 3 6 1 10 -4 10 -6 0 -11 6 -11 14 0 8 -6
16 -12 19 -40 13 218 69 323 71 43 1 75 4 72 9 -2 4 20 7 50 7 145 0 237 12
237 31 0 18 -10 19 -147 18 -82 -1 -184 -5 -228 -10z m-376 -193 c15 -16 19
-26 12 -31 -7 -4 -10 -1 -9 7 2 7 -3 12 -9 11 -7 -2 -13 4 -13 13 0 9 -5 12
-12 8 -7 -4 -8 -3 -4 4 9 16 9 16 35 -12z m-2339 -640 c0 -3 -13 -14 -28 -25
-22 -15 -29 -17 -29 -6 0 8 3 12 7 10 4 -2 16 2 26 10 21 16 24 17 24 11z"/>
<path d="M11520 2721 c0 -11 42 -43 48 -37 4 5 -35 46 -43 46 -3 0 -5 -4 -5
-9z"/>
<path d="M11570 2642 c0 -13 37 -45 48 -41 5 2 -4 14 -20 27 -15 13 -28 19
-28 14z"/>
<path d="M10400 2587 c0 -14 7 -30 15 -37 9 -8 15 -9 15 -2 0 6 -5 14 -11 17
-6 4 -8 13 -5 21 3 7 1 16 -4 19 -6 4 -10 -5 -10 -18z"/>
<path d="M9731 2533 c-29 -35 -17 -43 14 -9 27 29 30 36 16 36 -5 0 -19 -12
-30 -27z"/>
<path d="M11105 2470 c3 -5 16 -10 28 -10 18 0 19 2 7 10 -20 13 -43 13 -35 0z"/>
<path d="M11910 2390 c0 -11 5 -20 10 -20 6 0 10 9 10 20 0 11 -4 20 -10 20
-5 0 -10 -9 -10 -20z"/>
<path d="M11370 2375 c0 -9 5 -15 11 -13 6 2 11 8 11 13 0 5 -5 11 -11 13 -6
2 -11 -4 -11 -13z"/>
<path d="M9732 2349 c-19 -30 -8 -34 12 -4 9 14 13 25 9 25 -5 0 -14 -9 -21
-21z"/>
<path d="M11776 2334 c-4 -9 -4 -19 -2 -21 8 -8 26 8 26 23 0 19 -16 18 -24
-2z"/>
<path d="M7420 2260 c-112 -5 -105 -6 70 -7 107 0 204 3 215 7 22 8 -91 8
-285 0z"/>
<path d="M9255 2249 c-4 -6 -5 -13 -2 -16 7 -7 27 6 27 18 0 12 -17 12 -25 -2z"/>
<path d="M7685 2224 c-21 -16 -5 -18 29 -5 16 6 17 9 5 13 -8 3 -23 0 -34 -8z"/>
<path d="M11210 2181 c0 -9 24 -21 43 -21 6 0 2 7 -9 15 -22 17 -34 19 -34 6z"/>
<path d="M11543 2153 c15 -2 39 -2 55 0 15 2 2 4 -28 4 -30 0 -43 -2 -27 -4z"/>
<path d="M7905 2140 c-7 -11 9 -11 45 0 24 8 24 8 -7 9 -17 1 -35 -3 -38 -9z"/>
<path d="M8850 2136 c0 -10 9 -16 25 -16 14 0 25 5 25 10 0 6 -4 10 -9 10 -5
0 -16 3 -25 6 -11 4 -16 1 -16 -10z"/>
<path d="M7183 2133 c15 -2 37 -2 50 0 12 2 0 4 -28 4 -27 0 -38 -2 -22 -4z"/>
<path d="M7293 2133 c15 -2 39 -2 55 0 15 2 2 4 -28 4 -30 0 -43 -2 -27 -4z"/>
<path d="M7162 1848 c5 -15 28 -18 29 -3 0 6 -7 12 -17 13 -10 3 -15 -1 -12
-10z"/>
<path d="M7530 1805 c0 -15 6 -25 14 -25 8 0 17 -6 19 -12 3 -7 6 -2 6 13 1
24 -15 49 -31 49 -4 0 -8 -11 -8 -25z"/>
<path d="M7044 1745 c-16 -12 -17 -14 -2 -15 23 0 48 11 48 21 0 14 -24 11
-46 -6z"/>
<path d="M4746 1708 c-48 -41 -48 -41 -344 -36 -194 4 -246 3 -152 -2 259 -14
444 -15 465 -3 21 12 93 83 83 83 -3 0 -26 -19 -52 -42z"/>
<path d="M6930 1670 c0 -13 30 -13 50 0 11 7 7 10 -17 10 -18 0 -33 -4 -33
-10z"/>
<path d="M6723 1633 c-12 -2 -27 -12 -35 -21 -7 -8 -8 -13 -2 -9 7 4 32 8 58
8 25 1 46 6 46 10 0 7 -27 20 -38 18 -4 -1 -17 -4 -29 -6z"/>
</g></g>
</g>

<!-- BIKE group (translateX to enter from left). Wheel pivots: rear 307,261 ; front 567,262 -->
<g id="bike">
<g fill="#2DD4FF" filter="url(#bg)"><g transform="translate(0.000000,440.000000) scale(0.100000,-0.100000)">
<path d="M1110 3280 c-15 -5 36 -8 128 -9 95 -1 152 3 152 9 0 12 -243 12
-280 0z"/>
<path d="M1483 2913 c37 -2 96 -2 130 0 34 2 4 3 -68 3 -71 0 -99 -1 -62 -3z"/>
<path d="M2283 2843 c20 -2 54 -2 75 0 20 2 3 4 -38 4 -41 0 -58 -2 -37 -4z"/>
<path d="M1193 2763 c26 -2 68 -2 95 0 26 2 4 3 -48 3 -52 0 -74 -1 -47 -3z"/>
<path d="M2325 2760 c22 -4 47 -4 55 1 10 5 -5 8 -40 8 -55 -1 -55 -1 -15 -9z"/>
<path d="M1575 2660 c-130 -5 -115 -6 114 -8 145 -1 262 0 259 3 -8 8 -208 11
-373 5z"/>
<path d="M2615 2530 c-21 -21 -42 -37 -46 -34 -4 2 -10 1 -13 -4 -16 -26 29
-2 66 35 23 24 40 43 37 43 -3 0 -22 -18 -44 -40z"/>
<path d="M1855 2500 c-35 -4 49 -7 198 -8 166 -1 257 2 257 8 0 11 -354 11
-455 0z"/>
<path d="M2522 2450 c-7 -17 -16 -29 -21 -26 -5 3 -11 0 -14 -7 -3 -8 1 -14 9
-14 21 0 54 50 45 66 -6 9 -12 3 -19 -19z"/>
<path d="M2317 2433 c18 -2 50 -2 70 0 21 2 7 4 -32 4 -38 0 -55 -2 -38 -4z"/>
<path d="M1720 2280 c-13 -9 -13 -11 0 -20 19 -13 30 -13 30 0 0 6 -6 10 -12
10 -9 0 -8 4 2 10 8 5 11 10 5 10 -5 0 -17 -5 -25 -10z"/>
<path d="M1835 2280 c3 -5 22 -10 41 -10 21 0 33 4 29 10 -3 6 -22 10 -41 10
-21 0 -33 -4 -29 -10z"/>
<path d="M2205 2140 c4 -6 55 -10 121 -10 69 0 114 4 114 10 0 6 -47 10 -121
10 -77 0 -118 -4 -114 -10z"/>
<path d="M2085 2039 c-13 -19 4 -22 160 -27 147 -4 165 -2 147 23 -10 14 -299
18 -307 4z"/>
<path d="M1997 1920 c-6 -24 11 -38 19 -15 5 12 9 13 20 4 17 -14 26 -9 16 7
-15 23 -49 26 -55 4z"/>
<path d="M2178 1924 c6 -3 12 -12 12 -20 0 -8 7 -14 16 -14 14 0 14 3 4 15
-11 13 -8 15 14 15 26 0 34 -29 27 -87 -3 -18 7 -16 32 8 18 16 23 18 25 5 2
-8 15 -16 29 -18 34 -4 41 -25 11 -31 -17 -3 -14 -5 10 -6 33 -1 33 -1 26 47
-9 61 -9 62 -49 62 -25 0 -38 -6 -47 -22 -12 -22 -13 -22 -18 12 -5 34 -6 35
-55 37 -27 1 -44 0 -37 -3z"/>
<path d="M2150 1859 c-19 -3 -26 -7 -14 -8 12 0 43 -4 70 -7 52 -7 56 1 8 14
-16 4 -45 5 -64 1z"/>
<path d="M2358 1713 c-25 -6 -22 -40 3 -48 23 -8 38 7 35 33 -3 18 -13 22 -38
15z"/>
<path d="M2250 1636 c0 -8 11 -17 25 -20 26 -7 33 -30 14 -42 -6 -3 -15 -1
-19 6 -5 9 -9 9 -14 1 -4 -6 -22 -11 -41 -11 -21 0 -35 -6 -39 -16 -3 -9 -11
-12 -18 -8 -7 4 0 -6 16 -22 19 -19 30 -25 33 -16 6 17 34 15 61 -4 31 -21 28
-31 -14 -39 -50 -9 -36 -16 40 -21 56 -4 69 -1 86 16 24 24 30 25 30 6 0 -11
58 -30 68 -21 2 1 -7 24 -20 50 -23 47 -23 47 -75 42 -37 -4 -53 -2 -54 6 -1
7 -2 23 -2 36 -2 27 -77 83 -77 57z"/>
<path d="M2390 1619 c0 -5 -6 -7 -12 -3 -10 5 -10 4 -1 -6 6 -7 16 -9 22 -6
14 9 14 26 1 26 -5 0 -10 -5 -10 -11z"/>
</g></g>
<g id="bikeBody" fill="#FFFFFF" filter="url(#wg)"><g transform="translate(0.000000,440.000000) scale(0.100000,-0.100000)">
<path d="M4200 4154 c-121 -21 -190 -112 -190 -250 0 -41 0 -41 183 -156 239
-151 221 -143 247 -116 43 46 60 92 45 121 -11 21 -11 41 -3 97 11 77 8 74 92
70 39 -2 39 -2 18 27 -98 135 -272 227 -392 207z m133 -29 c69 -21 94 -40 78
-59 -9 -11 -4 -18 26 -35 38 -21 38 -21 11 1 -20 18 -24 25 -14 34 15 14 23 8
95 -69 55 -58 55 -58 10 -51 -24 3 -74 16 -111 28 -38 13 -68 21 -68 19 0 -7
64 -35 112 -48 53 -15 53 -15 -52 -9 -121 7 -134 1 -132 -64 1 -37 1 -37 -34
3 -61 71 -56 129 8 84 29 -20 31 -20 16 -3 -10 11 -18 23 -18 27 0 3 8 8 18
10 9 2 -1 2 -23 0 -49 -6 -67 -26 -54 -60 30 -80 172 -189 240 -184 49 2 51
-16 12 -77 -34 -52 -30 -52 -122 5 -241 150 -301 193 -301 218 0 34 16 31 56
-9 19 -19 34 -29 34 -24 0 6 -21 29 -46 52 -39 36 -44 46 -39 69 8 30 12 31
52 17 23 -8 25 -8 10 3 -50 33 -49 30 -16 69 26 33 33 36 51 27 16 -9 19 -8
13 1 -13 21 117 6 167 -19 23 -11 44 -19 46 -16 9 9 -84 47 -131 52 -38 5 -46
8 -32 14 32 12 83 10 138 -6z m137 -210 c3 -2 1 -37 -4 -79 -10 -75 -11 -76
-38 -76 -16 0 -52 15 -81 35 -48 33 -51 37 -48 72 5 60 15 66 95 58 39 -4 73
-8 76 -10z"/>
<path d="M4360 4043 c0 -5 -12 -14 -27 -20 -24 -9 -25 -11 -7 -12 27 -1 61 23
46 33 -7 4 -12 3 -12 -1z"/>
<path d="M4285 3761 c8 -17 19 -33 25 -36 5 -3 1 10 -11 29 -25 43 -36 48 -14
7z"/>
<path d="M3915 3788 c-56 -28 -125 -97 -123 -122 1 -12 -12 -43 -29 -71 -17
-27 -40 -77 -53 -110 -12 -33 -33 -85 -46 -116 -13 -31 -24 -62 -24 -69 0 -6
-9 -25 -21 -41 -26 -37 -89 -173 -89 -193 0 -12 10 -16 43 -14 36 1 38 2 10 5
-18 2 -33 10 -33 16 1 19 24 44 38 41 7 -1 8 0 2 3 -16 7 -12 43 5 43 8 0 12
6 9 14 -3 8 2 28 12 45 17 29 18 29 43 13 25 -16 25 -16 12 1 -20 25 -7 33 74
50 39 8 86 22 105 31 19 9 26 14 15 10 -39 -11 -131 -32 -169 -39 -37 -6 -38
-6 -32 19 15 60 27 81 37 66 7 -11 8 -8 4 11 -8 33 42 162 91 236 37 57 94
101 146 113 32 8 32 8 5 9 -29 1 -79 -20 -109 -47 -29 -25 -20 1 10 29 36 34
90 62 104 53 7 -5 8 -3 3 6 -6 10 1 12 36 7 44 -6 44 -6 14 8 -39 18 -43 18
-90 -7z"/>
<path d="M3970 3703 c-26 -10 -50 -35 -50 -54 0 -14 6 -12 29 12 36 35 71 37
126 8 34 -18 37 -19 25 -4 -28 34 -92 52 -130 38z"/>
<path d="M5112 3668 c-25 -25 -13 -73 36 -144 84 -119 88 -129 57 -165 -14
-17 -25 -41 -25 -53 0 -13 -9 -31 -20 -41 -26 -24 -32 -47 -20 -79 8 -21 6
-33 -10 -59 -11 -17 -20 -36 -20 -42 0 -5 11 8 24 29 17 29 22 49 19 80 -4 35
-1 45 21 65 16 15 26 35 26 52 0 27 30 63 37 44 14 -43 49 -81 120 -128 45
-31 84 -53 86 -50 9 9 127 -62 123 -74 -4 -9 52 -94 79 -121 20 -21 -2 24 -32
63 -23 30 -32 50 -25 53 22 7 12 29 -62 140 -70 106 -143 198 -285 364 -67 79
-100 95 -129 66z m71 -56 c41 -51 139 -158 121 -133 -5 9 -35 45 -65 81 -74
88 -92 117 -35 55 75 -80 166 -204 156 -210 -14 -8 -12 -18 5 -41 13 -18 14
-18 9 6 -5 25 -5 25 11 -2 18 -32 27 -37 19 -10 -6 19 41 -32 58 -63 7 -14 1
-11 -22 10 -28 25 -26 20 15 -35 58 -78 60 -80 52 -57 -10 28 0 19 33 -28 17
-25 28 -45 25 -45 -25 0 -107 55 -125 85 -12 19 -27 32 -32 29 -6 -4 -8 -2 -4
4 16 26 -140 206 -173 200 -17 -4 -102 107 -116 150 -6 21 8 53 24 52 3 -1 23
-22 44 -48z m111 -217 c24 -25 60 -77 81 -116 l37 -71 -59 40 c-32 22 -64 46
-71 55 -10 11 -52 120 -52 134 0 14 28 -4 64 -42z"/>
<path d="M4262 3650 c-7 -11 -8 -20 -2 -20 5 0 14 9 20 20 6 11 7 20 3 20 -5
0 -14 -9 -21 -20z"/>
<path d="M4671 3599 c-16 -47 -14 -124 4 -139 10 -8 29 -10 54 -6 51 8 63 -8
65 -82 1 -46 -2 -56 -14 -53 -45 12 -70 11 -95 -2 -19 -9 -37 -11 -54 -6 -14
4 -49 15 -78 23 -86 25 -187 67 -211 89 -12 11 -36 58 -54 104 -17 46 -34 83
-37 83 -4 0 -7 -39 -7 -87 -1 -83 -1 -85 5 -23 6 65 6 65 24 26 9 -21 17 -44
17 -50 0 -6 14 -26 30 -45 37 -42 34 -46 -22 -28 -23 8 -47 12 -53 9 -5 -3 16
-13 45 -21 30 -9 60 -19 65 -22 19 -13 100 -32 123 -30 22 2 23 1 11 -21 -12
-22 -11 -23 8 -5 27 23 84 7 63 -18 -7 -9 -8 -15 -2 -15 5 0 15 7 22 15 17 20
34 19 26 -1 -5 -14 -4 -15 8 -5 9 8 16 8 20 2 4 -6 24 -2 54 10 50 22 92 15
92 -15 0 -8 4 -18 10 -21 6 -3 7 1 4 9 -9 23 18 20 49 -4 14 -11 30 -20 35
-20 5 0 15 -6 21 -13 9 -11 1 -13 -39 -11 -28 2 -50 -1 -50 -6 0 -6 24 -10 53
-10 29 0 58 -5 65 -12 9 -9 12 -7 12 9 0 25 -11 34 -81 72 -53 30 -53 30 -50
80 3 68 -23 125 -53 114 -63 -21 -71 -14 -71 64 0 82 3 87 38 74 27 -10 72
-83 69 -111 -1 -10 1 -11 4 -2 11 24 20 11 21 -30 0 -24 5 -63 10 -88 8 -45 8
-45 27 5 22 59 23 93 6 134 -14 34 -50 43 -50 14 -1 -10 -10 -1 -22 22 -43 84
-96 104 -117 44z m188 -116 c13 -47 -3 -84 -26 -60 -11 11 -13 26 -8 61 8 52
20 52 34 -1z"/>
<path d="M3742 3465 c-1 -16 -5 -41 -8 -55 -5 -22 -4 -23 6 -7 6 9 9 34 7 55
-3 32 -4 33 -5 7z"/>
<path d="M3930 3462 c0 -41 205 -232 249 -232 9 0 34 -11 56 -25 22 -13 45
-24 50 -24 6 0 -1 6 -15 14 -25 14 -25 14 5 14 17 0 83 -5 147 -12 65 -7 114
-9 110 -6 -4 4 -72 14 -152 23 -232 27 -270 43 -270 112 0 50 15 73 63 96 33
15 36 18 12 12 -16 -4 -38 -6 -47 -6 -23 1 -68 -47 -67 -72 0 -19 1 -19 10 4
12 30 38 60 52 60 6 0 0 -12 -14 -26 -18 -19 -23 -36 -23 -66 2 -42 2 -42 -50
13 -28 30 -66 72 -84 94 -18 22 -32 34 -32 27z"/>
<path d="M2584 3447 c-4 -11 -14 -12 -47 -6 -74 14 -94 11 -133 -23 -32 -28
-35 -36 -30 -67 3 -20 -4 -89 -15 -155 -20 -119 -20 -119 6 -157 14 -22 31
-39 38 -39 6 0 83 -11 170 -25 158 -25 227 -31 153 -14 -21 5 -97 18 -170 29
-164 26 -163 25 -182 62 -14 28 -14 31 3 45 16 13 16 14 1 9 -10 -3 -18 -4
-18 -2 0 1 8 49 19 107 10 57 16 121 13 142 -4 38 -4 38 34 32 39 -6 39 -6 10
7 -29 14 -29 14 -3 31 39 26 50 22 42 -15 -6 -33 -6 -33 10 -6 12 22 21 26 43
23 42 -8 290 -45 298 -45 3 0 1 -7 -6 -15 -6 -8 -9 -19 -5 -25 9 -14 -37 -13
-148 4 -153 23 -187 26 -187 16 0 -6 3 -9 8 -8 11 3 145 -12 252 -28 121 -18
129 -18 106 -1 -21 16 -7 57 19 57 17 0 49 -56 40 -70 -3 -6 -1 -10 6 -10 7 0
10 11 7 30 -5 35 4 37 43 9 37 -26 37 -40 -1 -32 -19 3 -30 1 -30 -6 0 -6 11
-11 24 -11 14 0 32 -7 40 -16 15 -14 16 -13 16 10 0 33 -46 86 -75 86 -12 0
-36 7 -51 15 -16 8 -40 15 -53 15 -13 0 -29 7 -35 15 -7 9 -42 19 -91 25 -44
6 -88 13 -98 16 -9 3 -19 -1 -23 -9z"/>
<path d="M3107 3343 c18 -2 50 -2 70 0 21 2 7 4 -32 4 -38 0 -55 -2 -38 -4z"/>
<path d="M3733 3333 c-18 -2 -33 -8 -33 -14 0 -12 17 -10 60 6 36 14 31 15
-27 8z"/>
<path d="M4867 3323 c-11 -10 -8 -33 3 -33 6 0 10 7 10 16 0 11 8 14 33 12 32
-3 32 -3 35 -69 2 -46 -1 -69 -10 -77 -11 -9 -85 -25 -158 -34 -24 -3 -100 22
-100 32 0 6 -9 10 -19 10 -24 0 -36 16 -20 26 6 3 15 1 19 -6 5 -8 9 -7 13 4
8 20 46 21 53 1 4 -8 0 -23 -7 -33 -13 -15 -12 -16 4 -3 23 18 22 48 -4 56
-25 8 -69 -2 -89 -20 -8 -7 -28 -15 -45 -18 -30 -4 -30 -4 3 -6 18 0 52 -11
75 -23 56 -29 61 -30 142 -32 76 -1 71 3 107 -84 13 -32 13 -32 13 12 0 24 -3
42 -6 40 -4 -2 -14 7 -22 20 -15 23 -15 24 9 30 16 4 32 2 42 -6 13 -11 14
-11 8 0 -7 11 1 38 20 70 7 11 45 -22 40 -34 -3 -8 -1 -14 4 -14 23 0 8 42
-20 58 -26 15 -30 23 -30 58 0 29 -5 44 -16 48 -21 8 -79 8 -87 -1z"/>
<path d="M2924 3255 c-9 -23 3 -45 26 -45 24 0 25 -14 6 -117 -7 -40 -19 -79
-26 -88 -8 -10 -9 -15 -2 -15 19 0 30 32 47 131 9 52 18 102 21 112 3 9 1 17
-5 17 -6 0 -11 -6 -11 -14 0 -8 -10 -13 -22 -12 -17 1 -22 7 -21 24 3 25 -5
29 -13 7z"/>
<path d="M5240 3233 c-28 -23 -32 -31 -27 -64 6 -45 -1 -53 -93 -102 -64 -34
-168 -64 -245 -70 -31 -2 -36 -5 -22 -11 42 -20 261 53 350 116 24 17 27 24
21 55 -6 30 -2 39 27 69 39 41 33 45 -11 7z"/>
<path d="M2886 3223 c-3 -15 -10 -59 -16 -98 -6 -38 -13 -80 -16 -92 -2 -13
-1 -23 4 -23 9 0 45 230 38 237 -2 3 -7 -8 -10 -24z"/>
<path d="M4136 3181 c-15 -21 -38 -49 -51 -61 -14 -13 -25 -32 -25 -42 0 -11
-8 -33 -17 -51 -9 -18 -18 -43 -20 -57 -2 -22 -1 -21 9 5 6 17 17 39 24 50 8
11 14 28 14 38 0 10 15 37 34 60 38 48 70 97 64 97 -3 0 -17 -17 -32 -39z"/>
<path d="M4330 3166 c19 -8 51 -14 70 -14 35 1 35 1 -5 8 -22 4 -53 10 -70 14
-27 6 -27 5 5 -8z"/>
<path d="M5281 3152 c24 -16 63 -39 87 -52 33 -19 41 -28 36 -43 -5 -17 -4
-17 16 3 14 14 30 20 46 17 13 -2 21 0 18 4 -3 5 -22 9 -43 9 -26 0 -59 13
-111 45 -81 49 -122 63 -49 17z"/>
<path d="M4441 3099 c-43 -17 -278 -216 -267 -226 3 -3 48 34 102 81 131 117
171 140 232 133 35 -5 41 -4 22 3 -21 8 -19 9 15 6 58 -4 197 -45 218 -63 9
-9 17 -11 17 -6 0 18 -24 32 -85 48 -32 8 -63 19 -69 25 -13 13 -153 12 -185
-1z"/>
<path d="M5000 3084 c0 -5 7 -19 15 -30 8 -10 15 -14 15 -8 0 5 -7 19 -15 30
-8 10 -15 14 -15 8z"/>
<path d="M5331 3037 c9 -7 19 -21 22 -32 5 -19 5 -19 6 1 1 21 -16 44 -33 44
-6 0 -4 -6 5 -13z"/>
<path d="M5466 3041 c-3 -5 10 -47 30 -94 32 -76 40 -87 68 -94 50 -12 51 -11
57 57 6 65 6 65 7 -15 1 -55 5 -76 13 -68 19 19 7 136 -16 148 -11 5 -45 25
-76 43 -59 34 -74 38 -83 23z"/>
<path d="M2760 3030 c-20 -6 -21 -8 -5 -8 11 0 31 4 45 8 20 6 21 8 5 8 -11 0
-31 -4 -45 -8z"/>
<path d="M3532 3001 c-38 -124 8 -211 149 -282 85 -42 306 -122 323 -116 6 2
-11 11 -39 19 -171 52 -339 132 -383 182 -43 50 -54 132 -27 214 4 12 3 22 -2
22 -6 0 -15 -17 -21 -39z"/>
<path d="M12733 3033 c26 -2 67 -2 90 0 23 2 2 3 -48 3 -49 0 -68 -1 -42 -3z"/>
<path d="M4600 3008 c11 -12 202 -28 218 -18 13 7 5 9 -33 10 -27 0 -81 3
-120 6 -38 4 -68 4 -65 2z"/>
<path d="M2947 2963 c-14 -13 -7 -25 8 -13 11 9 22 9 44 2 16 -6 31 -9 33 -6
2 2 64 -8 138 -21 73 -14 155 -25 181 -25 43 0 70 -13 56 -27 -3 -3 -78 9
-167 27 -89 17 -164 30 -166 27 -3 -2 70 -19 161 -37 158 -31 167 -34 181 -61
20 -39 26 -37 9 4 -26 63 15 74 70 19 25 -24 27 -24 16 -4 -21 40 -58 55 -174
68 -62 7 -157 22 -212 34 -102 20 -166 25 -178 13z"/>
<path d="M4775 2959 c113 -26 273 -89 267 -105 -2 -5 1 -10 6 -12 6 -2 9 5 8
15 -1 12 -20 25 -56 40 -30 12 -47 22 -36 22 26 1 186 -42 186 -50 0 -13 -33
-20 -44 -9 -15 15 -30 12 -17 -4 10 -11 8 -15 -6 -19 -13 -3 -11 -5 7 -6 31
-1 79 34 65 48 -12 11 -224 65 -231 58 -3 -2 -35 4 -72 14 -37 10 -78 18 -92
18 -17 -1 -13 -4 15 -10z"/>
<path d="M5385 2936 c17 -14 34 -26 39 -26 11 0 11 0 -34 29 -35 23 -35 23 -5
-3z"/>
<path d="M2820 2940 c-11 -7 -6 -10 22 -10 49 0 247 -47 275 -66 19 -12 21
-12 17 0 -6 16 -72 37 -201 66 -108 23 -94 22 -113 10z"/>
<path d="M2570 2916 c0 -17 39 -86 48 -86 4 0 20 -12 36 -26 27 -24 28 -26 10
-39 -11 -8 -37 -15 -60 -15 -22 0 -49 -7 -60 -15 -19 -15 -19 -15 0 -30 11 -8
26 -15 33 -15 21 0 15 -38 -6 -45 -17 -5 -91 -139 -91 -163 0 -5 -5 -13 -12
-20 -6 -6 -13 -20 -14 -29 -2 -10 -4 -27 -6 -38 -2 -16 3 -20 22 -20 20 0 48
24 120 102 51 57 95 101 97 99 3 -2 -3 -34 -12 -71 -16 -63 -16 -70 -1 -102
16 -34 64 -63 106 -63 11 0 20 -4 20 -10 0 -5 7 -7 16 -3 21 8 3 18 -50 27
-40 8 -86 45 -86 70 0 9 8 13 23 10 22 -5 22 -5 0 5 -24 11 -25 2 7 156 11 53
20 112 20 131 0 34 14 52 25 34 3 -5 17 -10 31 -10 14 0 34 -5 45 -11 17 -9
302 -72 384 -85 77 -12 -75 28 -215 56 -85 18 -158 35 -162 39 -12 11 3 51 19
51 8 0 12 -4 9 -9 -4 -5 3 -7 13 -4 19 5 71 -4 201 -32 36 -8 91 -19 123 -25
51 -10 55 -13 42 -26 -8 -9 -15 -21 -15 -27 0 -7 10 1 23 17 20 25 26 27 45
17 26 -14 50 -59 44 -85 -2 -11 0 -16 7 -12 40 25 -21 111 -85 120 -21 4 -59
11 -84 18 -25 6 -53 11 -62 12 -9 0 -15 3 -12 7 7 11 -31 20 -51 13 -12 -5
-16 -4 -12 3 4 6 -5 13 -21 16 -15 3 -30 1 -33 -5 -4 -6 -39 -3 -93 7 -123 23
-168 3 -180 -80 -18 -121 -13 -113 -123 -229 -58 -61 -111 -112 -119 -114 -15
-4 -19 23 -5 32 5 3 12 17 15 32 4 14 20 53 35 87 16 34 31 70 34 80 8 21 27
23 27 1 0 -8 -20 -53 -45 -99 -25 -46 -41 -86 -37 -89 13 -8 101 185 106 230
4 40 2 42 -25 48 -42 8 -35 26 10 26 22 0 46 3 54 6 10 3 17 -2 20 -13 4 -17
5 -17 6 1 0 11 8 28 17 38 16 17 14 20 -30 59 -25 22 -46 47 -46 55 0 8 -7 17
-15 20 -32 13 -12 19 51 16 46 -3 64 0 60 7 -11 18 -136 14 -136 -3z m254
-115 c19 -30 -29 -53 -63 -32 -11 7 -7 12 15 25 34 18 41 19 48 7z"/>
<path d="M5425 2880 c160 -56 485 -243 462 -266 -11 -11 -180 38 -232 67 -51
29 -70 34 -125 35 -57 0 -69 4 -95 28 -33 30 -156 93 -201 102 -45 8 -104 -20
-97 -47 8 -30 85 -105 104 -101 16 3 109 -33 109 -43 0 -14 -73 -35 -87 -24
-10 9 -12 9 -8 -3 4 -9 -10 -27 -35 -47 -23 -18 -66 -67 -97 -110 -115 -157
-87 -144 -210 -100 -59 21 -115 38 -123 38 -13 -1 -13 -1 0 -6 8 -3 58 -20
110 -39 52 -19 101 -37 107 -39 11 -4 -21 -92 -39 -111 -5 -4 -148 41 -152 48
-15 23 -57 149 -52 156 3 6 1 12 -4 14 -11 3 -100 203 -100 224 0 13 72 82
115 110 16 10 52 22 79 25 51 6 51 6 8 8 -50 1 -89 -16 -155 -71 -69 -58 -69
-62 13 -265 90 -223 85 -215 164 -241 93 -31 103 -29 116 16 14 54 178 302
199 302 9 0 96 -179 90 -184 -2 -1 -19 -13 -36 -25 -18 -12 -33 -27 -33 -32 0
-6 16 2 36 17 29 23 37 25 44 13 29 -46 60 -70 47 -35 -6 16 26 32 42 22 16
-10 20 48 5 72 -17 27 -17 27 76 42 121 19 255 4 352 -40 43 -19 43 -19 8 -21
-35 -2 -35 -2 0 -8 59 -11 110 7 63 22 -10 3 -48 17 -85 31 -112 42 -290 52
-388 21 -11 -4 -28 19 -62 89 -51 102 -53 94 22 121 3 1 22 5 43 9 21 5 42 16
47 26 22 40 122 28 200 -26 37 -24 234 -73 247 -61 8 9 -38 58 -102 107 -87
66 -331 181 -415 195 -22 4 -12 -2 25 -15z m-111 -74 c66 -30 136 -82 136
-101 0 -19 -47 -38 -80 -32 -53 9 -165 58 -186 80 -29 31 -42 72 -21 64 9 -3
18 1 21 10 8 19 57 11 130 -21z m31 -294 c24 -51 40 -92 35 -92 -10 0 -90 163
-90 183 0 18 9 3 55 -91z m-36 -5 c55 -120 56 -122 27 -135 -24 -11 -26 -9
-72 83 -46 92 -46 96 -29 115 28 31 33 26 74 -63z m76 -138 c9 -14 -24 -49
-47 -49 -26 0 -23 35 5 48 29 14 34 14 42 1z"/>
<path d="M4321 2695 c20 -22 39 -47 42 -55 5 -13 5 -13 6 0 1 17 -22 46 -59
75 -15 12 -10 3 11 -20z"/>
<path d="M2637 2681 c3 -10 -1 -29 -7 -41 -19 -35 6 -14 29 25 20 35 20 35 -3
35 -19 0 -23 -4 -19 -19z"/>
<path d="M4990 2663 c14 -2 60 -15 102 -29 42 -13 94 -23 115 -23 34 2 35 2 8
6 -16 3 -69 15 -117 29 -48 13 -97 23 -110 23 -22 -2 -22 -2 2 -6z"/>
<path d="M3265 2644 c11 -8 19 -20 17 -25 -1 -6 2 -7 8 -4 13 8 -16 45 -34 45
-6 0 -2 -8 9 -16z"/>
<path d="M3430 2639 c36 -12 70 -25 75 -31 14 -15 -95 0 -114 15 -12 10 -13 9
-6 -3 22 -39 81 -103 157 -170 83 -74 83 -74 -19 31 -57 57 -103 107 -103 111
0 3 17 2 38 -3 50 -11 75 -11 67 1 -9 15 8 12 82 -15 37 -13 69 -23 71 -21 11
11 -255 106 -293 105 -11 0 9 -9 45 -20z"/>
<path d="M3310 2475 c-12 -53 -19 -99 -16 -102 3 -4 6 -3 6 1 0 17 104 -51
146 -96 45 -48 45 -48 72 11 27 60 27 60 75 25 56 -41 57 -46 15 -73 -18 -11
-26 -21 -18 -21 13 0 13 -1 0 -10 -20 -13 -33 -13 -24 1 4 7 -2 7 -17 -1 -35
-18 -38 -23 -9 -16 24 7 24 6 6 -8 -30 -24 1 -19 36 5 16 12 30 20 32 18 2 -2
8 -13 14 -24 10 -18 11 -17 12 12 0 23 6 33 20 38 11 3 20 10 20 16 0 5 -15 0
-32 -11 -46 -28 -59 -25 -20 4 33 24 33 24 -20 70 -66 58 -71 57 -97 -5 -21
-52 -21 -52 -65 -11 -24 22 -67 52 -96 67 -38 19 -50 30 -46 43 14 44 37 155
33 159 -2 2 -14 -40 -27 -92z"/>
<path d="M4014 2513 c-38 -42 -116 -169 -168 -275 -10 -21 -22 -38 -28 -38 -5
0 -7 -4 -4 -9 3 -4 -9 -30 -27 -56 -65 -97 -77 -120 -75 -144 3 -28 40 -57 83
-66 24 -5 20 -2 -15 15 -24 11 -47 26 -51 32 -13 21 17 94 56 138 12 14 48 75
80 135 31 61 62 117 69 125 6 8 19 31 28 50 8 19 37 59 63 88 26 28 44 52 40
52 -4 0 -27 -21 -51 -47z"/>
<path d="M3400 2468 c36 -24 85 -55 110 -69 25 -13 80 -48 123 -77 86 -60 106
-65 25 -6 -29 21 -64 47 -78 60 -14 12 -36 25 -49 29 -14 4 -56 28 -94 52 -93
59 -119 67 -37 11z"/>
<path d="M5152 2400 c0 -14 3 -34 8 -45 9 -20 9 -20 8 0 0 11 -4 31 -8 45 -8
25 -8 25 -8 0z"/>
<path d="M5445 2381 c6 -5 24 -13 40 -17 39 -9 30 0 -15 15 -19 6 -30 7 -25 2z"/>
<path d="M5423 2345 c-3 -9 -3 -19 1 -22 3 -4 6 -1 6 5 0 7 12 12 28 12 21 0
24 2 12 10 -22 14 -40 12 -47 -5z"/>
<path d="M5077 2305 c-42 -49 -43 -61 -2 -17 24 24 50 62 43 62 -2 -1 -20 -21
-41 -45z"/>
<path d="M3536 2291 c-27 -52 -36 -81 -26 -81 6 0 10 6 10 13 0 7 9 30 20 52
11 21 18 40 16 43 -3 2 -12 -10 -20 -27z"/>
<path d="M5148 2231 c-56 -62 -103 -150 -124 -230 -17 -69 -14 -83 14 -58 18
17 19 14 15 -85 -3 -76 0 -115 11 -148 16 -45 16 -45 9 0 -10 64 -10 260 -1
260 4 0 8 4 8 10 0 13 65 105 109 155 36 40 36 40 3 10 -19 -17 -50 -52 -70
-80 -20 -27 -49 -65 -65 -84 -29 -34 -29 -34 -22 0 16 77 68 177 132 257 47
57 35 53 -19 -7z"/>
<path d="M4643 2182 c15 -16 24 -44 26 -78 1 -6 12 -17 26 -24 17 -9 21 -16
14 -21 -8 -4 -4 -9 10 -14 11 -3 21 -11 21 -16 0 -16 -32 -23 -51 -11 -24 15
-26 15 -32 -2 -4 -10 -1 -13 9 -9 29 11 13 -6 -29 -30 -31 -18 -55 -25 -89
-24 -37 2 -48 -2 -52 -15 -4 -19 9 -25 19 -8 3 6 25 10 49 10 32 0 52 8 82 30
21 16 50 30 65 30 59 0 64 40 9 76 -22 15 -40 35 -40 45 0 27 -21 67 -38 74
-14 5 -13 3 1 -13z"/>
<path d="M4900 2193 c0 -6 -19 -32 -42 -59 -23 -27 -32 -40 -20 -30 19 16 22
17 22 3 0 -9 -5 -19 -11 -23 -8 -5 -8 -8 0 -13 8 -5 5 -29 -9 -79 -22 -81 -25
-118 -9 -128 6 -4 8 -21 5 -43 -5 -32 -4 -33 6 -13 8 17 8 31 -1 60 -11 33
-10 47 7 103 11 35 20 85 20 111 1 33 8 57 23 78 13 16 20 33 16 37 -4 3 -7 2
-7 -4z"/>
<path d="M4462 2115 c3 -4 48 -16 100 -27 51 -11 99 -25 106 -30 7 -6 15 -8
18 -5 12 11 -7 25 -43 32 -21 4 -42 9 -46 12 -5 3 -30 7 -55 9 -25 2 -55 7
-66 10 -12 4 -18 3 -14 -1z"/>
<path d="M4286 2060 c8 -29 35 -73 41 -67 2 2 -8 24 -22 48 -16 26 -23 34 -19
19z"/>
<path d="M4336 1965 c6 -15 43 -40 49 -33 1 2 -11 13 -26 26 -21 17 -27 19
-23 7z"/>
<path d="M4455 1941 c-6 -5 -21 -11 -35 -14 -19 -3 -16 -5 11 -6 25 -1 39 4
43 14 6 17 -5 20 -19 6z"/>
<path d="M4712 1904 c-37 -36 -37 -36 6 -3 23 18 42 34 42 36 0 9 -14 0 -48
-33z"/>
<path d="M3840 1920 c-12 -8 -11 -10 6 -10 17 0 20 -5 16 -29 -2 -16 0 -31 5
-34 5 -3 7 7 5 24 -4 29 10 40 24 18 9 -15 84 -49 109 -48 11 0 -4 8 -33 18
-29 10 -65 30 -81 45 -31 29 -30 29 -51 16z"/>
<path d="M4709 1863 c-34 -38 -34 -38 4 -4 20 19 37 36 37 38 0 8 -8 0 -41
-34z"/>
<path d="M4601 1819 c-56 -37 -65 -46 -26 -26 31 17 84 57 75 57 -3 0 -25 -14
-49 -31z"/>
<path d="M4053 1833 c15 -2 39 -2 55 0 15 2 2 4 -28 4 -30 0 -43 -2 -27 -4z"/>
<path d="M1726 1795 c-2 -7 4 -15 17 -19 27 -7 28 -5 6 16 -14 13 -19 14 -23
3z"/>
<path d="M1942 1621 c-9 -6 -7 -12 8 -26 15 -14 20 -15 20 -4 0 23 -15 38 -28
30z"/>
<path d="M2153 1593 c-10 -3 -10 -10 -2 -24 5 -11 14 -17 20 -14 5 4 7 11 4
16 -3 5 1 6 10 3 11 -5 14 -2 9 10 -6 16 -18 19 -41 9z"/>
<path d="M6800 1470 c-19 -5 -62 -11 -94 -14 -33 -4 -62 -9 -64 -11 -12 -12
119 -4 157 10 23 8 48 12 56 9 8 -4 15 -1 15 5 0 12 -19 13 -70 1z"/>
</g></g>
<path d="M576 133 L780 98 L788 133 L780 168 Z" fill="url(#beam)" filter="url(#beamBlur)"/>
<circle cx="574" cy="133" r="12" fill="#2DD4FF" opacity="0.5" filter="url(#bg)"/>
<circle cx="574" cy="133" r="6" fill="#EAFBFF"/>
<g id="wheelRear">
<g fill="#2DD4FF" filter="url(#bg)"><g transform="translate(0.000000,440.000000) scale(0.100000,-0.100000)">
<path d="M2697 2148 c-27 -36 -42 -63 -57 -102 -16 -44 -2 -29 26 27 14 28 35
62 47 74 11 13 18 25 15 29 -3 3 -17 -10 -31 -28z"/>
<path d="M2664 2162 c-6 -4 -17 -17 -23 -30 -12 -23 -12 -23 13 -7 14 10 26
24 26 31 0 16 -1 16 -16 6z"/>
<path d="M2598 2013 c-11 -15 -11 -16 5 -10 15 6 16 2 11 -36 -4 -23 -11 -50
-15 -59 -13 -25 42 -241 57 -226 3 3 -2 23 -10 44 -24 59 -33 171 -20 229 13
58 -2 89 -28 58z"/>
<path d="M2480 1871 c0 -59 7 -81 26 -81 11 0 12 4 4 19 -5 11 -11 40 -12 65
-2 62 -18 59 -18 -3z"/>
<path d="M2407 1724 c-17 -18 -6 -52 18 -56 14 -3 27 -3 29 1 6 10 -39 62 -47
55z"/>
<path d="M2620 1665 c16 -43 39 -83 51 -91 8 -5 9 -3 4 7 -14 22 -15 60 -2 53
7 -4 -3 7 -22 25 -42 37 -43 38 -31 6z"/>
<path d="M2446 1561 c-9 -58 59 -171 103 -171 6 0 8 7 5 15 -8 20 54 21 82 0
18 -12 24 -12 40 0 16 11 24 11 53 -1 64 -27 119 -10 61 19 -16 9 -30 12 -30
7 0 -13 -38 -1 -107 32 -35 16 -68 26 -73 23 -6 -4 -17 -2 -25 5 -9 7 -15 8
-20 1 -5 -9 -55 8 -74 25 -12 10 37 32 59 27 20 -4 23 -3 13 7 -6 7 -9 19 -6
26 3 8 1 14 -3 15 -69 6 -72 5 -78 -30z"/>
<path d="M2546 1575 c7 -18 36 -27 59 -19 13 5 8 10 -22 20 -21 8 -39 14 -40
14 -1 0 0 -7 3 -15z"/>
<path d="M2706 1567 c-15 -11 -16 -18 -8 -34 6 -11 9 -23 7 -27 -3 -3 -2 -4 2
-1 3 3 13 -1 22 -7 10 -8 9 -4 -3 10 -12 14 -14 22 -7 22 8 0 10 7 6 21 -5 16
-4 19 5 14 9 -5 11 -4 6 3 -9 15 -8 15 -30 -1z"/>
<path d="M2635 1531 c-3 -6 5 -15 20 -21 33 -13 32 -13 32 5 0 8 -4 15 -8 15
-4 0 -14 3 -22 6 -8 3 -18 1 -22 -5z"/>
<path d="M2728 1263 c57 -2 147 -2 200 0 53 1 7 3 -103 3 -110 0 -154 -2 -97
-3z"/>
</g></g>
<g fill="#FFFFFF" filter="url(#wg)"><g transform="translate(0.000000,440.000000) scale(0.100000,-0.100000)">
<path d="M2832 2335 c8 -9 139 -37 145 -31 2 2 -19 9 -49 15 -29 7 -64 14 -78
18 -14 3 -22 2 -18 -2z"/>
<path d="M2753 2291 c-261 -189 -254 -643 13 -835 39 -27 39 -27 -3 11 -240
220 -253 558 -32 785 37 37 65 68 64 68 -1 0 -20 -13 -42 -29z"/>
<path d="M3060 2281 c37 -12 109 -22 85 -12 -11 5 -40 11 -65 15 -30 4 -36 3
-20 -3z"/>
<path d="M3338 2250 c-25 -23 -23 -32 17 -84 19 -26 35 -49 35 -53 0 -37 64
-47 75 -12 4 11 23 30 43 44 44 30 33 33 -14 4 -19 -11 -40 -19 -47 -16 -7 3
-2 9 13 16 66 31 72 37 53 52 -9 8 -14 9 -10 3 4 -7 -4 -19 -18 -28 -29 -19
-30 -16 -10 24 9 17 12 30 7 30 -4 0 -17 -19 -28 -41 -20 -42 -20 -42 -44 -3
-13 21 -23 42 -22 45 1 4 -6 13 -16 22 -15 13 -19 13 -34 -3z m34 -17 c-9 -3
-5 -13 13 -35 25 -30 33 -58 16 -58 -13 0 -61 59 -61 75 0 13 15 23 35 23 6 0
4 -2 -3 -5z m67 -119 c6 4 11 2 11 -4 0 -17 -31 -24 -40 -9 -5 7 -6 17 -3 22
3 5 9 4 13 -3 4 -7 13 -9 19 -6z"/>
<path d="M3090 2089 c-132 -12 -201 -78 -208 -199 -14 -237 302 -315 393 -97
22 53 11 46 -21 -14 -34 -61 -119 -112 -137 -81 -2 4 -2 1 -1 -5 5 -21 -67
-15 -116 10 -97 49 -135 162 -86 259 34 70 71 98 91 71 13 -16 12 -20 -9 -38
-71 -60 -72 -184 -2 -230 13 -9 24 -22 22 -28 -1 -7 -1 -9 1 -6 2 4 21 5 43 2
70 -10 150 33 150 80 0 19 -3 17 -20 -11 -26 -43 -77 -67 -124 -58 -101 19
-143 146 -75 220 41 45 90 59 143 41 47 -16 47 -8 0 11 -24 10 -50 13 -74 9
-30 -5 -39 -3 -44 11 -9 24 3 33 57 40 41 6 47 4 47 -12 0 -17 0 -17 13 0 13
18 15 18 48 1 19 -10 43 -25 53 -34 15 -13 18 -13 14 -1 -11 36 -89 66 -158
59z"/>
<path d="M3135 1965 c-39 -17 -21 -18 25 0 19 7 28 14 20 14 -8 0 -28 -6 -45
-14z"/>
<path d="M2610 1924 c0 -11 -5 -25 -12 -32 -9 -9 -9 -12 0 -12 13 0 28 47 18
57 -3 4 -6 -3 -6 -13z"/>
<path d="M3020 1913 c-22 -28 -21 -67 2 -88 8 -7 9 -4 3 10 -17 46 -16 55 9
79 14 14 21 26 16 26 -5 0 -18 -12 -30 -27z"/>
<path d="M3612 1843 c-1 -23 -5 -50 -8 -60 -5 -14 -4 -15 5 -7 8 7 11 30 8 60
-3 48 -3 48 -5 7z"/>
<path d="M3576 1688 c-63 -181 -225 -306 -441 -338 -42 -6 -44 -8 -15 -9 144
-4 330 101 417 237 35 54 78 162 65 162 -4 0 -16 -24 -26 -52z"/>
</g></g>
</g>
<g id="wheelFront">
<g fill="#2DD4FF" filter="url(#bg)"><g transform="translate(0.000000,440.000000) scale(0.100000,-0.100000)">
<path d="M5665 2101 c115 -31 215 -130 215 -213 0 -21 0 -21 14 -2 13 16 13
20 0 27 -8 4 -14 21 -14 37 0 19 -7 34 -20 42 -11 7 -20 18 -20 24 0 33 -90
80 -170 89 -34 4 -34 4 -5 -4z"/>
<path d="M5647 2083 c-14 -13 -6 -33 13 -33 11 0 20 -5 20 -11 0 -5 4 -8 9 -5
5 4 11 3 13 -1 5 -12 82 -68 90 -66 3 1 9 -4 12 -13 4 -10 1 -13 -7 -9 -6 4
-3 -2 8 -12 41 -36 62 -122 37 -144 -11 -10 -18 -27 -16 -45 2 -27 -4 -33 -52
-59 -39 -21 -53 -34 -49 -45 5 -12 4 -12 -6 -3 -13 13 -69 -11 -69 -30 0 -4
-4 -5 -10 -2 -5 3 -10 1 -10 -4 0 -17 -30 -13 -36 4 -7 17 -41 20 -46 4 -2 -5
-11 -7 -21 -3 -10 3 -16 12 -13 19 6 16 -1 25 -50 62 -23 18 -44 29 -48 26 -4
-4 -4 0 -1 8 7 20 -26 51 -44 40 -23 -14 91 -159 127 -161 4 -1 30 -8 57 -16
45 -13 46 -14 12 -10 -81 10 -168 71 -207 145 -18 34 -25 30 -20 -14 2 -23 28
-55 44 -55 7 0 19 -8 27 -17 62 -69 193 -93 315 -57 94 27 163 119 170 227 4
62 4 62 -14 -8 -10 -38 -25 -81 -35 -95 -20 -31 -95 -94 -122 -103 -19 -6 -19
-6 -1 6 44 28 85 70 79 80 -3 6 -1 7 5 3 26 -16 55 75 56 169 0 98 -42 160
-140 209 -54 27 -66 30 -77 19z"/>
<path d="M6132 1884 c-1 -98 -11 -188 -19 -180 -12 12 -51 -79 -41 -92 8 -9 7
-11 -7 -6 -14 6 -16 4 -10 -6 6 -9 -1 -21 -21 -38 -17 -14 -21 -22 -11 -18 24
8 9 -20 -30 -54 -19 -17 -22 -18 -10 -4 33 40 16 34 -48 -18 -59 -47 -83 -70
-53 -52 7 5 8 3 4 -5 -5 -7 -15 -10 -23 -7 -8 3 -11 1 -8 -4 7 -12 -58 -45
-119 -61 -30 -7 -45 -16 -42 -24 11 -29 -187 -22 -266 10 -10 4 -18 3 -18 -3
0 -15 129 -42 203 -42 67 0 142 22 116 34 -8 3 -2 4 13 1 29 -5 60 3 53 14 -2
4 17 18 42 30 51 25 82 46 147 103 24 21 45 36 48 33 2 -3 5 1 5 7 0 7 14 36
32 64 17 29 29 58 26 67 -4 8 0 21 8 28 34 35 61 232 40 288 -7 18 -10 2 -11
-65z"/>
<path d="M5101 1824 c0 -27 4 -58 9 -69 4 -12 6 7 3 45 -7 79 -13 92 -12 24z"/>
<path d="M5116 1686 c-7 -29 0 -50 15 -41 5 4 9 2 9 -2 0 -5 7 -18 15 -29 14
-18 15 -18 6 6 -5 14 -16 40 -24 59 -14 33 -14 33 -21 7z"/>
<path d="M5213 1464 c26 -27 44 -53 41 -57 -4 -4 -39 -7 -78 -8 -51 -1 -63 -3
-41 -8 39 -9 129 1 132 15 1 6 -21 33 -50 60 -52 49 -52 49 -4 -2z"/>
<path d="M5305 1387 c16 -12 36 -23 45 -24 8 -1 26 -5 40 -8 25 -6 25 -6 0 9
-14 8 -33 13 -44 9 -13 -4 -16 -2 -11 7 5 8 4 11 -3 6 -5 -3 -12 -1 -14 6 -2
6 -13 12 -24 14 -14 2 -12 -2 11 -19z"/>
<path d="M5875 1370 c-38 -22 -66 -40 -61 -40 5 0 34 14 63 30 30 17 57 28 62
26 4 -3 8 1 8 9 0 8 -1 15 -1 15 -1 -1 -32 -19 -71 -40z"/>
<path d="M5972 1395 c-11 -13 1 -15 90 -15 80 1 99 3 84 12 -11 6 -45 8 -85 5
-40 -3 -58 -2 -46 3 18 8 18 9 -5 9 -14 0 -31 -6 -38 -14z"/>
<path d="M5820 1300 c-11 -7 -6 -10 20 -10 26 0 31 3 20 10 -8 5 -17 10 -20
10 -3 0 -12 -5 -20 -10z"/>
<path d="M5545 1200 c-23 -4 40 -7 145 -7 131 0 166 2 120 7 -82 10 -213 9
-265 0z"/>
<path d="M5580 1170 c-77 -4 -45 -6 120 -6 147 -1 201 2 155 6 -80 9 -128 9
-275 0z"/>
<path d="M5565 1120 c-51 -5 -22 -7 107 -8 109 -1 179 2 183 8 7 11 -171 11
-290 0z"/>
</g></g>
<g fill="#FFFFFF" filter="url(#wg)"><g transform="translate(0.000000,440.000000) scale(0.100000,-0.100000)">
<path d="M5705 2360 c-144 -17 -151 -31 -109 -198 21 -82 24 -105 14 -117 -17
-20 -39 -19 -47 3 -3 9 -30 67 -58 128 -29 61 -56 121 -60 133 -4 12 -9 20
-12 17 -11 -11 105 -261 145 -314 32 -42 52 -28 52 34 0 55 15 57 100 14 271
-137 106 -550 -187 -470 -84 23 -181 117 -186 180 -1 11 -5 16 -10 11 -13 -13
20 -82 61 -125 110 -115 287 -115 398 -1 157 161 76 400 -153 449 -28 6 -34
14 -43 49 -6 23 -15 55 -20 71 -24 71 -15 94 42 111 28 8 86 15 127 16 52 0
70 3 56 9 -23 10 -28 10 -110 0z m-85 -345 c0 -8 -7 -15 -15 -15 -16 0 -20 12
-8 23 11 12 23 8 23 -8z"/>
<path d="M5526 2345 c18 -14 17 -14 -9 -5 -35 12 -44 13 -31 1 15 -14 62 -22
69 -12 3 6 -3 15 -14 20 -29 16 -38 13 -15 -4z"/>
<path d="M5890 2312 c148 -104 250 -245 250 -345 0 -23 4 -36 10 -32 16 10 12
-151 -5 -224 -44 -184 -188 -335 -379 -397 -39 -13 -62 -23 -50 -24 37 0 118
29 178 65 55 33 64 35 155 37 96 2 96 2 9 5 -87 4 -87 4 -48 43 246 246 214
660 -64 849 -47 31 -99 53 -56 23z"/>
<path d="M5405 2280 c20 -38 19 -47 -5 -53 -15 -4 -24 2 -36 25 -8 16 -17 28
-20 26 -5 -5 19 -71 28 -78 9 -7 58 -112 58 -125 0 -6 -9 -16 -20 -23 -21 -13
-28 -42 -9 -42 5 0 8 4 5 9 -3 4 3 16 14 26 18 16 19 15 34 -14 17 -32 20 -57
9 -64 -5 -2 -3 -3 3 -1 7 1 19 -14 28 -34 29 -62 43 -77 61 -62 8 7 15 21 15
31 0 20 15 26 24 10 4 -5 0 -12 -6 -14 -7 -3 -4 -6 8 -6 46 -2 68 -55 36 -84
-30 -28 -82 -8 -82 31 0 15 -17 16 -26 1 -4 -7 -9 -8 -13 -1 -4 7 -15 5 -31
-4 -25 -14 -25 -14 5 -9 24 4 26 3 10 -4 -11 -5 -32 -10 -47 -10 -16 -1 -28
-5 -28 -11 0 -5 -8 -7 -17 -4 -12 4 -14 3 -6 -3 6 -4 14 -20 18 -35 10 -40 83
-102 137 -117 218 -61 367 228 186 359 -22 17 -48 30 -57 30 -9 0 3 -10 27
-21 164 -81 112 -337 -74 -365 -59 -9 -135 18 -173 61 -51 58 -50 94 2 95 10
0 31 7 46 15 27 13 30 13 51 -10 28 -30 53 -32 80 -5 26 26 25 56 -1 78 -11 9
-34 44 -50 77 -17 33 -35 65 -42 70 -12 9 -97 177 -102 200 -4 22 -39 85 -47
85 -5 0 -2 -13 7 -30z m64 -156 c45 -105 47 -114 28 -114 -16 0 -110 187 -102
201 16 25 36 1 74 -87z m64 -166 c22 -59 24 -70 11 -74 -9 -4 -54 87 -54 109
0 24 30 0 43 -35z m32 12 c9 -16 12 -30 7 -30 -4 0 -13 14 -19 30 -6 17 -10
30 -7 30 2 0 10 -13 19 -30z"/>
<path d="M5956 2194 c28 -27 63 -65 78 -84 16 -19 25 -28 20 -20 -15 31 -87
111 -117 132 -21 14 -14 4 19 -28z"/>
<path d="M5310 2108 c0 -3 14 -22 30 -43 17 -21 30 -34 30 -29 -1 10 -60 82
-60 72z"/>
<path d="M5311 1922 c-6 -12 -11 -27 -11 -34 1 -7 8 0 16 15 9 16 13 31 11 34
-3 2 -10 -4 -16 -15z"/>
<path d="M6114 1845 c0 -49 1 -71 3 -48 2 23 2 64 0 90 -2 26 -3 8 -3 -42z"/>
<path d="M5311 1853 c0 -12 -5 -25 -11 -28 -15 -9 -12 -42 5 -48 8 -4 17 -2
20 3 4 6 -1 10 -9 10 -19 0 -20 5 -5 31 5 11 8 28 6 37 -3 12 -5 11 -6 -5z"/>
<path d="M5586 1861 c-3 -5 3 -7 14 -4 16 4 20 0 20 -17 0 -18 -4 -21 -21 -17
-16 4 -19 3 -11 -5 17 -17 44 -1 40 24 -3 24 -32 36 -42 19z"/>
<path d="M5081 1674 c-4 -55 90 -200 170 -263 52 -41 176 -107 185 -98 3 2
-14 12 -37 21 -136 55 -236 161 -307 326 -6 14 -11 20 -11 14z"/>
<path d="M6047 1592 c-16 -25 -21 -40 -12 -32 17 14 49 70 43 75 -2 2 -16 -18
-31 -43z"/>
</g></g>
</g>
</g>

<g id="pin" filter="url(#gg)" fill="none" stroke="#00E676" stroke-width="5" stroke-linejoin="round" stroke-linecap="round">
<path d="M1280 126 C 1258 100, 1256 88, 1256 72 A 24 24 0 1 1 1304 72 C 1304 88, 1302 100, 1280 126 Z"/>
<circle cx="1280" cy="70" r="8"/>
<ellipse cx="1280" cy="140" rx="26" ry="6.5" opacity="0.4"/>
<ellipse cx="1280" cy="140" rx="14" ry="3.5" opacity="0.8"/>
</g>

<g id="wordmark">
<g fill="#2DD4FF" filter="url(#bg)"><g transform="translate(0.000000,440.000000) scale(0.100000,-0.100000)">
<path d="M6686 1423 c-7 -7 -76 -17 -211 -31 -70 -8 -70 -8 35 -22 157 -22
429 -17 514 9 151 47 143 50 -105 51 -124 0 -229 -3 -233 -7z"/>
<path d="M7188 1383 c17 -2 47 -2 65 0 17 2 3 4 -33 4 -36 0 -50 -2 -32 -4z"/>
<path d="M3643 1368 c14 -9 314 -8 407 1 36 3 -44 6 -177 6 -132 0 -236 -3
-230 -7z"/>
<path d="M4585 1330 c-11 -5 -38 -9 -60 -9 -96 -3 -61 -19 54 -26 108 -6 388
2 378 11 -4 4 -167 21 -272 28 -44 3 -89 1 -100 -4z m173 -27 c-26 -2 -71 -2
-100 0 -29 2 -8 3 47 3 55 0 79 -1 53 -3z"/>
<path d="M4398 1303 c12 -2 30 -2 40 0 9 3 -1 5 -23 4 -22 0 -30 -2 -17 -4z"/>
<path d="M6255 1290 c-4 -7 69 -10 212 -9 125 1 207 4 193 9 -37 12 -398 12
-405 0z"/>
<path d="M2188 1263 c84 -2 219 -2 300 0 81 1 12 3 -153 3 -165 0 -231 -2
-147 -3z"/>
<path d="M7275 1186 c-55 -25 -72 -58 -159 -305 -47 -134 -92 -254 -100 -266
-36 -54 -28 -54 -752 -60 -368 -3 -698 -8 -734 -10 -36 -2 -137 -5 -225 -6
-160 -3 -160 -3 65 -10 297 -9 1548 -11 1591 -2 76 15 106 65 197 330 90 260
102 281 169 290 70 9 76 -3 113 -226 22 -134 47 -171 116 -171 63 0 90 23 132
113 21 45 58 123 82 173 54 117 104 144 165 92 26 -23 26 -23 4 -268 -13 -135
-20 -258 -16 -273 16 -60 136 -89 185 -44 17 15 19 15 35 -1 15 -15 42 -17
190 -20 250 -4 269 9 294 206 15 116 15 122 -4 154 -35 61 -67 69 -250 66
-175 -3 -189 -7 -235 -69 -20 -27 -53 -236 -43 -270 13 -41 -94 -56 -119 -16
-13 19 -12 51 11 270 29 285 27 298 -53 326 -104 36 -152 -5 -245 -209 -73
-162 -81 -174 -115 -184 -47 -14 -64 18 -89 169 -13 77 -32 154 -41 172 -29
56 -105 77 -169 49z m1292 -312 c21 -21 24 -31 19 -67 -3 -23 -8 -73 -12 -112
-6 -57 -12 -74 -35 -97 -27 -28 -27 -28 -189 -28 -160 0 -161 0 -187 26 -22
22 -25 31 -20 72 3 26 9 74 13 107 6 49 13 66 39 92 33 33 33 33 189 33 155 0
157 0 183 -26z"/>
<path d="M5373 1113 c26 -2 67 -2 90 0 23 2 2 3 -48 3 -49 0 -68 -1 -42 -3z"/>
<path d="M5898 1113 c29 -2 74 -2 100 0 26 2 2 3 -53 3 -55 0 -76 -1 -47 -3z"/>
<path d="M8796 1095 c-3 -8 -8 -44 -12 -80 -7 -64 -7 -64 -43 -67 -49 -4 -53
-41 -5 -46 36 -3 35 2 13 -154 -28 -202 -2 -228 229 -228 135 0 152 2 175 20
26 20 26 20 59 0 30 -18 50 -20 196 -20 233 0 259 16 281 180 7 47 14 96 16
110 2 14 -5 45 -15 68 -29 63 -58 72 -240 72 -237 0 -265 -22 -287 -230 -4
-41 -7 -84 -5 -94 6 -48 -20 -56 -180 -56 -200 0 -198 -3 -178 175 19 169 8
154 114 157 83 3 91 5 91 23 0 18 -8 20 -88 23 -88 3 -88 3 -81 82 6 76 6 80
-14 80 -11 0 -22 -7 -26 -15z m818 -206 c38 -18 43 -49 29 -167 -18 -150 -13
-146 -210 -150 -234 -5 -237 -2 -217 167 13 112 15 116 58 142 37 22 295 28
340 8z"/>
<path d="M5758 1063 c23 -2 59 -2 80 0 20 2 1 4 -43 4 -44 0 -61 -2 -37 -4z"/>
</g></g>
<g fill="#FFFFFF" filter="url(#wg)"><g transform="translate(0.000000,440.000000) scale(0.100000,-0.100000)">
<path d="M6323 1419 c-35 -5 -91 -13 -125 -18 -51 -7 -25 -9 129 -10 175 -1
275 7 373 29 49 11 -298 10 -377 -1z"/>
<path d="M3773 1373 c59 -2 155 -2 215 0 59 1 10 3 -108 3 -118 0 -167 -2
-107 -3z"/>
<path d="M4628 1303 c46 -2 118 -2 160 0 42 1 5 3 -83 3 -88 0 -123 -2 -77 -3z"/>
<path d="M1143 1263 c93 -2 241 -2 330 0 89 1 14 3 -168 3 -181 0 -254 -2
-162 -3z"/>
<path d="M1683 1263 c15 -2 37 -2 50 0 12 2 0 4 -28 4 -27 0 -38 -2 -22 -4z"/>
<path d="M9734 1165 c-30 -30 -28 -59 4 -63 17 -3 20 0 15 13 -10 29 17 35
155 35 151 0 141 10 122 -120 -29 -203 -58 -496 -50 -504 21 -21 38 17 49 107
6 50 20 171 31 267 11 96 23 192 26 213 6 37 6 37 154 37 118 0 149 3 153 14
3 8 3 17 0 20 -4 3 -148 6 -320 6 -314 0 -314 0 -339 -25z"/>
<path d="M11831 1168 c-5 -13 -23 -143 -40 -290 -35 -295 -35 -296 -65 -307
-37 -14 -438 -1 -463 15 -44 28 -22 246 29 289 43 36 307 39 344 4 24 -23 54
-20 54 5 0 8 -14 26 -32 41 -32 27 -32 27 -187 23 -226 -5 -248 -22 -271 -214
-6 -55 -10 -111 -8 -124 4 -30 -37 -56 -74 -47 -36 9 -37 16 -19 161 17 143
13 159 -42 200 -40 30 -321 37 -373 10 -30 -16 -34 -16 -58 -1 -30 20 -215 24
-278 7 -39 -11 -94 -66 -103 -103 -14 -60 -33 -303 -25 -311 20 -20 32 15 46
136 30 256 -2 238 416 238 213 0 336 -4 349 -11 25 -13 41 -53 33 -83 -5 -22
-9 -23 -176 -30 -219 -9 -255 -26 -265 -129 -9 -99 39 -127 222 -127 110 0
137 3 169 19 38 20 38 20 59 0 26 -24 73 -24 114 0 31 19 32 19 69 0 45 -23
433 -29 494 -8 36 13 60 57 60 111 0 67 8 78 54 78 38 -1 50 -9 154 -100 77
-69 121 -100 138 -100 39 0 30 13 -90 116 -63 55 -114 104 -112 109 1 6 57 48
123 95 130 93 141 104 102 108 -19 2 -58 -21 -157 -93 -113 -82 -137 -96 -165
-93 -33 3 -33 3 -10 188 13 102 22 196 21 209 -4 33 -26 38 -37 9z m-783 -495
c-8 -94 -26 -103 -200 -103 -162 0 -178 6 -178 71 0 29 6 43 31 63 30 26 33
26 191 26 160 0 160 0 156 -57z"/>
<path d="M12340 928 c-60 -31 -80 -63 -90 -144 -22 -167 -8 -219 66 -250 40
-17 437 -20 478 -4 41 15 54 48 66 165 21 194 25 198 204 205 123 5 131 6 131
25 0 19 -7 20 -130 20 -200 0 -224 -22 -246 -229 -16 -151 -24 -161 -112 -152
-33 3 -131 6 -219 6 -157 0 -159 0 -185 26 -24 24 -29 81 -9 102 3 2 83 6 178
9 149 3 176 6 204 24 82 50 72 175 -17 206 -64 22 -268 16 -319 -9z m327 -50
c30 -28 29 -60 -1 -95 -24 -28 -24 -28 -200 -31 -175 -3 -175 -3 -169 35 15
101 36 113 212 113 125 0 136 -2 158 -22z"/>
<path d="M13044 641 c-37 -22 -64 -58 -64 -83 0 -29 30 -20 42 12 18 53 26 55
392 60 259 4 340 8 344 18 3 9 -69 12 -340 12 -320 0 -345 -1 -374 -19z"/>
</g></g>
<circle cx="1397" cy="367" r="12" fill="none" stroke="#00E676" stroke-width="4" filter="url(#gg)"/>
</g>

<text id="tagline" x="770" y="418" text-anchor="middle" font-family="'Trebuchet MS','DejaVu Sans',sans-serif" font-size="26" letter-spacing="11" fill="#7f8896" font-weight="500">RIDE <tspan fill="#00E676">&#8226;</tspan> TRACK <tspan fill="#00E676">&#8226;</tspan> EXPLORE</text>
</svg>